# xmcd CD database file
#
# Track frame offsets:
#	150
#	17052
#	31837
#	47198
#	60870
#	77063
#	90180
#	102945
#	121719
#	139233
#	154966
#	167960
#	183583
#	198814
#	215591
#
# Disc length: 3050 seconds
#
# Revision: 0
# Processed by: cddbd v1.5.2PL0 Copyright (c) Steve Scherf et al.
# Submitted via: CDex 1.51
#
DISCID=be0be80f
DTITLE=Annett Louisan - Unausgesprochen
DYEAR=1900
DGENRE=Jazz
TTITLE0=Was hast du vor
TTITLE1=Ausgesprochen Unausgesprochen
TTITLE2=Beerdigung
TTITLE3=Widder wider willen
TTITLE4=Vielleicht
TTITLE5=Der den ich will
TTITLE6=Die Lösung
TTITLE7=Er gehörte mal mir
TTITLE8=Wo Ist Das Problem
TTITLE9=Läuft alles Perfekt
TTITLE10=Eve
TTITLE11=Rumours of gedacht ich sage nein
TTITLE12=Chancenlos
TTITLE13=Torsten Schmidt
TTITLE14=Das große Erwachen
EXTD=
EXTT0=
EXTT1=
EXTT2=
EXTT3=
EXTT4=
EXTT5=
EXTT6=
EXTT7=
EXTT8=
EXTT9=
EXTT10=
EXTT11=
EXTT12=
EXTT13=
EXTT14=
PLAYORDER=
